HIERARCHY
ROOT Hips
{
	OFFSET 0.00 0.00 0.00
	CHANNELS 6 Xposition Yposition Zposition Xrotation Yrotation Zrotation
	JOINT Spine
	{
		OFFSET 0.00000 5.89385 0.00000
		CHANNELS 3 Xrotation Yrotation Zrotation
		JOINT Head
		{
			OFFSET 0.00000 16.44715 0.00000
			CHANNELS 3 Xrotation Yrotation Zrotation
			End Site
			{
				OFFSET 0.00000 4.52755 0.00000
			}
		}
		JOINT LeftShoulder
		{
			OFFSET 0.00000 10.90038 0.00000
			CHANNELS 3 Xrotation Yrotation Zrotation
			JOINT LeftArm
			{
				OFFSET 8.21946 0.00000 0.00000
				CHANNELS 3 Xrotation Yrotation Zrotation
				JOINT LeftForeArm
				{
					OFFSET 11.09494 0.00000 0.00000
					CHANNELS 3 Yrotation Zrotation Xrotation
					JOINT LeftHand
					{
						OFFSET 9.10388 0.00000 0.00000
						CHANNELS 3 Xrotation Yrotation Zrotation
						JOINT LeftHandThumb1
						{
							OFFSET 0.00000 0.00000 0.00000
							CHANNELS 3 Xrotation Zrotation Yrotation
							End Site
							{
								OFFSET 0.00000 0.00000 3.93700
							}
						}
						End Site
						{
							OFFSET 3.93700 0.00000 0.00000
						}
					}
				}
			}
		}
		JOINT RightShoulder
		{
			OFFSET 0.00000 10.90038 0.00000
			CHANNELS 3 Xrotation Yrotation Zrotation
			JOINT RightArm
			{
				OFFSET -8.21946 0.00000 0.00000
				CHANNELS 3 Xrotation Yrotation Zrotation
				JOINT RightForeArm
				{
					OFFSET -11.09494 0.00000 0.00000
					CHANNELS 3 Yrotation Zrotation Xrotation
					JOINT RightHand
					{
						OFFSET -9.10388 0.00000 0.00000
						CHANNELS 3 Xrotation Yrotation Zrotation
						JOINT RightHandThumb1
						{
							OFFSET 0.00000 0.00000 0.00000
							CHANNELS 3 Xrotation Zrotation Yrotation
							End Site
							{
								OFFSET 0.00000 0.00000 3.93700
							}
						}
						End Site
						{
							OFFSET -3.93700 0.00000 0.00000
						}
					}
				}
			}
		}
	}
	JOINT LeftUpLeg
	{
		OFFSET 3.69794 0.00000 0.00000
		CHANNELS 3 Xrotation Yrotation Zrotation
		JOINT LeftLeg
		{
			OFFSET 0.00000 -16.18147 0.00000
			CHANNELS 3 Xrotation Yrotation Zrotation
			JOINT LeftFoot
			{
				OFFSET 0.00000 -16.50139 0.00000
				CHANNELS 3 Xrotation Yrotation Zrotation
				JOINT LeftToeBase
				{
					OFFSET 0.00000 -1.65857 6.18989
					CHANNELS 3 Xrotation Yrotation Zrotation
					End Site
					{
						OFFSET 0.00000 0.00000 2.95275
					}
				}
			}
		}
	}
	JOINT RightUpLeg
	{
		OFFSET -3.69794 0.00000 0.00000
		CHANNELS 3 Xrotation Yrotation Zrotation
		JOINT RightLeg
		{
			OFFSET 0.00000 -16.18147 0.00000
			CHANNELS 3 Xrotation Yrotation Zrotation
			JOINT RightFoot
			{
				OFFSET 0.00000 -16.50139 0.00000
				CHANNELS 3 Xrotation Yrotation Zrotation
				JOINT RightToeBase
				{
					OFFSET 0.00000 -1.65857 6.18989
					CHANNELS 3 Xrotation Yrotation Zrotation
					End Site
					{
						OFFSET 0.00000 0.00000 2.95275
					}
				}
			}
		}
	}
}
MOTION
Frames: 20
Frame Time: 0.008333
 5.0603 35.9868 -0.0215 -117.9194 -82.3765 -115.4122 11.9914 1.7890 -4.0930 17.0621 16.5694 3.5509 2.1814 7.3830 29.5559 -46.5109 20.2453 -29.4906 -2.6934 0.0000 -5.7366 0.5763 13.1783 -2.5263 33.1476 -0.0000 26.2537 29.3957 -27.9884 -13.0595 -72.3387 -2.3101 33.7799 -2.1365 -0.0000 -30.6766 0.0468 1.8866 -1.4208 32.8623 0.0000 -24.3270 11.4272 14.0880 0.6476 5.9829 0.0000 -0.0000 -10.6063 7.5049 -6.7010 5.0905 -0.0000 0.0000 11.8383 -10.7509 -8.2274 3.2673 -0.0000 0.0000 -12.2222 -8.5282 12.7694 12.5212 -0.0000 0.0000
 5.0657 35.9872 -0.0245 -118.0644 -82.3714 -115.5645 11.9981 1.8038 -4.0954 17.0661 16.5736 3.5493 2.1688 7.3710 29.5594 -46.5304 20.2645 -29.4682 -2.7066 0.0000 -5.6152 0.6009 13.2279 -2.6245 33.1476 -0.0000 26.2537 29.4168 -27.9903 -13.0486 -72.3487 -2.2700 33.7730 -2.1597 -0.0000 -30.7195 0.0469 1.8981 -1.4143 32.8623 0.0000 -24.3270 11.4093 14.1177 0.6584 5.9897 0.0000 -0.0000 -10.5977 7.5020 -6.7052 5.0726 -0.0000 0.0000 11.8186 -10.7244 -8.2189 3.2810 0.0000 -0.0000 -12.2226 -8.5321 12.7625 12.5203 0.0000 0.0000
 5.0714 35.9877 -0.0260 -118.1307 -82.3750 -115.6332 12.0002 1.8004 -4.0979 17.0764 16.5772 3.5420 2.1527 7.3618 29.5667 -46.4981 20.2631 -29.4801 -2.7049 0.0000 -5.6621 0.5888 13.1703 -2.5823 33.1476 -0.0000 26.2537 29.3872 -27.9772 -13.0698 -72.3688 -2.2794 33.7643 -2.1717 -0.0000 -30.6913 0.0466 1.8950 -1.4104 32.8623 0.0000 -24.3270 11.3828 14.1141 0.6655 6.0101 0.0000 -0.0000 -10.6062 7.5036 -6.6893 5.1088 -0.0000 -0.0000 11.7911 -10.7303 -8.2170 3.2965 0.0000 -0.0000 -12.2238 -8.5052 12.7373 12.5255 -0.0000 -0.0000
 5.0762 35.9884 -0.0283 -118.1891 -82.3708 -115.6959 12.0107 1.7984 -4.1020 17.0744 16.5824 3.5444 2.1403 7.3432 29.5796 -46.4811 20.2988 -29.4688 -2.7437 0.0000 -5.5750 0.5970 13.1902 -2.6147 33.1476 -0.0000 26.2537 29.3999 -27.9756 -13.0686 -72.3064 -2.2202 33.7614 -2.1682 -0.0000 -30.7870 0.0452 1.8892 -1.3702 32.8623 0.0000 -24.3270 11.3744 14.1107 0.6728 6.0081 0.0000 -0.0000 -10.5916 7.5162 -6.7004 5.0821 -0.0000 0.0000 11.7811 -10.7139 -8.2091 3.3036 0.0000 -0.0000 -12.2213 -8.5060 12.7271 12.5185 0.0000 -0.0000
 5.0818 35.9890 -0.0305 -118.2344 -82.3749 -115.7432 12.0153 1.7945 -4.1026 17.0794 16.5778 3.5301 2.1433 7.3564 29.5657 -46.5062 20.2747 -29.4607 -2.7342 0.0000 -5.5339 0.6052 13.1854 -2.6514 33.1476 -0.0000 26.2537 29.3751 -27.9775 -13.0906 -72.2980 -2.2220 33.7628 -2.1605 -0.0000 -30.7956 0.0464 1.8843 -1.4103 32.8623 0.0000 -24.3270 11.3559 14.1020 0.6802 6.0124 -0.0000 -0.0000 -10.5901 7.5314 -6.7058 5.1044 0.0000 -0.0000 11.7630 -10.7112 -8.2027 3.3092 -0.0000 0.0000 -12.2155 -8.5156 12.7284 12.5050 0.0000 -0.0000
 5.0862 35.9899 -0.0329 -118.3093 -82.3673 -115.8207 12.0272 1.7911 -4.1107 17.0859 16.5871 3.5299 2.1422 7.3579 29.5718 -46.4905 20.2700 -29.4572 -2.7489 0.0000 -5.5080 0.6065 13.2324 -2.6480 33.1476 -0.0000 26.2537 29.3775 -27.9700 -13.0888 -72.3130 -2.2085 33.7548 -2.1579 -0.0000 -30.7878 0.0435 1.8266 -1.3654 32.8623 0.0000 -24.3270 11.3487 14.1260 0.6878 6.0154 -0.0000 0.0000 -10.5786 7.5110 -6.7018 5.0995 -0.0000 -0.0000 11.7495 -10.7122 -8.1989 3.3210 0.0000 -0.0000 -12.2176 -8.4955 12.7235 12.5379 0.0000 -0.0000
 5.0910 35.9904 -0.0348 -118.3534 -82.3626 -115.8671 12.0452 1.7904 -4.1113 17.0731 16.5842 3.5152 2.1192 7.3469 29.5724 -46.4709 20.2641 -29.4540 -2.7377 0.0000 -5.5139 0.6116 13.1985 -2.6766 33.1476 -0.0000 26.2537 29.3374 -27.9769 -13.1175 -72.2823 -2.1964 33.7617 -2.1659 -0.0000 -30.7884 0.0419 1.8169 -1.3208 32.8623 0.0000 -24.3270 11.3453 14.1247 0.6909 6.0104 -0.0000 -0.0000 -10.5723 7.5248 -6.7171 5.1139 0.0000 -0.0000 11.7442 -10.7092 -8.1960 3.3143 -0.0000 0.0000 -12.2073 -8.4887 12.7284 12.5311 -0.0000 0.0000
 5.0958 35.9908 -0.0369 -118.4135 -82.3602 -115.9368 12.0534 1.7844 -4.1068 17.0732 16.5947 3.5104 2.1068 7.3494 29.5773 -46.4452 20.2557 -29.4572 -2.7464 0.0000 -5.5214 0.6215 13.2102 -2.7176 33.1476 -0.0000 26.2537 29.3254 -27.9711 -13.1302 -72.2894 -2.1878 33.7585 -2.1723 -0.0000 -30.8011 0.0430 1.8346 -1.3438 32.8623 0.0000 -24.3270 11.3350 14.1395 0.7037 6.0078 0.0000 -0.0000 -10.5644 7.5131 -6.7154 5.1027 -0.0000 0.0000 11.7367 -10.6953 -8.1835 3.3149 -0.0000 0.0000 -12.2001 -8.4872 12.7364 12.5402 0.0000 -0.0000
 5.1002 35.9913 -0.0387 -118.5181 -82.3567 -116.0466 12.0556 1.7829 -4.1031 17.0912 16.5965 3.4886 2.1168 7.3541 29.5712 -46.4521 20.2606 -29.4499 -2.7597 0.0000 -5.5358 0.6243 13.2055 -2.7308 33.1476 -0.0000 26.2537 29.3090 -27.9659 -13.1631 -72.2768 -2.1975 33.7611 -2.1629 -0.0000 -30.8128 0.0454 1.8757 -1.3882 32.8623 0.0000 -24.3270 11.3211 14.1621 0.7116 6.0137 0.0000 0.0000 -10.5592 7.5150 -6.7360 5.1018 0.0000 -0.0000 11.7231 -10.6809 -8.1770 3.3189 0.0000 -0.0000 -12.1952 -8.4844 12.7094 12.5449 0.0000 0.0000
 5.1051 35.9922 -0.0401 -118.5566 -82.3649 -116.0846 12.0497 1.7810 -4.1094 17.1077 16.5951 3.4888 2.1161 7.3393 29.5824 -46.4718 20.2809 -29.4427 -2.7588 0.0000 -5.5035 0.6233 13.1986 -2.7278 33.1476 -0.0000 26.2537 29.3347 -27.9735 -13.1458 -72.3061 -2.1749 33.7500 -2.1736 -0.0000 -30.7870 0.0432 1.8342 -1.3492 32.8623 0.0000 -24.3270 11.3060 14.1608 0.7135 6.0081 -0.0000 0.0000 -10.5454 7.5133 -6.7361 5.1022 -0.0000 -0.0000 11.7055 -10.6820 -8.1752 3.3195 -0.0000 0.0000 -12.1813 -8.4790 12.7330 12.5021 -0.0000 -0.0000
 5.1095 35.9927 -0.0416 -118.5997 -82.3653 -116.1286 12.0531 1.7695 -4.1122 17.1182 16.6028 3.4762 2.1057 7.3454 29.5844 -46.4695 20.2725 -29.4437 -2.7529 0.0000 -5.5083 0.6270 13.1681 -2.7502 33.1476 -0.0000 26.2537 29.3028 -27.9651 -13.1771 -72.2801 -2.1723 33.7498 -2.1774 -0.0000 -30.7786 0.0433 1.8515 -1.3411 32.8623 0.0000 -24.3270 11.2954 14.1732 0.7160 6.0062 -0.0000 0.0000 -10.5407 7.5060 -6.7181 5.1036 -0.0000 -0.0000 11.7002 -10.6665 -8.1716 3.3145 0.0000 -0.0000 -12.1816 -8.4869 12.7348 12.5612 0.0000 -0.0000
 5.1132 35.9934 -0.0433 -118.6413 -82.3657 -116.1789 12.0549 1.7649 -4.1059 17.1392 16.6047 3.4669 2.0964 7.3355 29.5863 -46.4664 20.2804 -29.4351 -2.7569 0.0000 -5.5404 0.6284 13.1738 -2.7552 33.1476 -0.0000 26.2537 29.2811 -27.9641 -13.1901 -72.2652 -2.1484 33.7451 -2.1904 -0.0000 -30.7950 0.0441 1.8508 -1.3649 32.8623 0.0000 -24.3270 11.2842 14.1834 0.7276 6.0073 0.0000 -0.0000 -10.5411 7.5121 -6.7298 5.1247 -0.0000 -0.0000 11.6927 -10.6723 -8.1621 3.3083 -0.0000 0.0000 -12.1670 -8.4658 12.7303 12.5419 0.0000 0.0000
 5.1176 35.9941 -0.0438 -118.6659 -82.3730 -116.2018 12.0488 1.7624 -4.1090 17.1651 16.5995 3.4552 2.0817 7.3081 29.5962 -46.4504 20.2970 -29.4311 -2.7613 0.0000 -5.5408 0.6293 13.1662 -2.7606 33.1476 -0.0000 26.2537 29.2682 -27.9662 -13.2086 -72.2920 -2.1712 33.7338 -2.2083 -0.0000 -30.7428 0.0438 1.8473 -1.3594 32.8623 0.0000 -24.3270 11.2694 14.1825 0.7261 6.0053 0.0000 -0.0000 -10.5265 7.5103 -6.7013 5.1155 -0.0000 -0.0000 11.6740 -10.6785 -8.1614 3.3129 0.0000 -0.0000 -12.1632 -8.4588 12.7155 12.5367 -0.0000 -0.0000
 5.1212 35.9946 -0.0448 -118.7103 -82.3782 -116.2466 12.0445 1.7561 -4.1112 17.1822 16.6078 3.4460 2.1051 7.3393 29.5835 -46.4872 20.2527 -29.4359 -2.7474 0.0000 -5.5577 0.6230 13.2010 -2.7261 33.1476 -0.0000 26.2537 29.2764 -27.9720 -13.2106 -72.3195 -2.1636 33.7297 -2.2293 -0.0000 -30.7355 0.0461 1.8901 -1.3960 32.8623 0.0000 -24.3270 11.2556 14.1755 0.7271 6.0066 0.0000 -0.0000 -10.5282 7.5266 -6.7092 5.1122 -0.0000 0.0000 11.6668 -10.6663 -8.1570 3.3041 0.0000 0.0000 -12.1572 -8.4763 12.7130 12.5417 -0.0000 0.0000
 5.1256 35.9952 -0.0462 -118.7660 -82.3864 -116.3073 12.0369 1.7495 -4.1076 17.1983 16.5991 3.4379 2.0934 7.3337 29.5836 -46.4697 20.2353 -29.4370 -2.7361 0.0000 -5.5688 0.6211 13.2340 -2.7110 33.1476 -0.0000 26.2537 29.2639 -27.9737 -13.2225 -72.3521 -2.1778 33.7215 -2.2400 -0.0000 -30.6987 0.0458 1.9025 -1.3787 32.8623 0.0000 -24.3270 11.2346 14.1774 0.7371 6.0091 0.0000 0.0000 -10.5187 7.5192 -6.7251 5.1180 0.0000 -0.0000 11.6454 -10.6742 -8.1498 3.3086 -0.0000 -0.0000 -12.1465 -8.4672 12.7257 12.5230 0.0000 0.0000
 5.1291 35.9957 -0.0469 -118.7799 -82.3886 -116.3202 12.0383 1.7472 -4.1110 17.2128 16.5889 3.4350 2.0816 7.3144 29.5930 -46.4483 20.2327 -29.4415 -2.7255 0.0000 -5.5927 0.6183 13.2302 -2.6997 33.1476 -0.0000 26.2537 29.2500 -27.9802 -13.2345 -72.3686 -2.1913 33.7155 -2.2421 -0.0000 -30.6688 0.0461 1.8812 -1.4047 32.8623 0.0000 -24.3270 11.2269 14.1879 0.7372 6.0054 -0.0000 0.0000 -10.5117 7.5140 -6.7187 5.1445 -0.0000 -0.0000 11.6382 -10.6635 -8.1495 3.3079 -0.0000 0.0000 -12.1464 -8.4652 12.6980 12.5353 -0.0000 0.0000
 5.1329 35.9966 -0.0480 -118.8035 -82.3878 -116.3449 12.0386 1.7469 -4.1160 17.2371 16.5964 3.4422 2.0715 7.2921 29.6117 -46.4524 20.2584 -29.4426 -2.7228 0.0000 -5.5792 0.6159 13.2329 -2.6886 33.1476 -0.0000 26.2537 29.2443 -27.9674 -13.2434 -72.3789 -2.2139 33.6891 -2.2394 -0.0000 -30.6243 0.0351 1.6902 -1.1915 32.8623 0.0000 -24.3270 11.2206 14.1695 0.7386 6.0038 0.0000 -0.0000 -10.4972 7.5334 -6.7155 5.1069 0.0000 0.0000 11.6295 -10.6618 -8.1469 3.3120 0.0000 -0.0000 -12.1404 -8.4662 12.7188 12.5368 -0.0000 0.0000
 5.1362 35.9973 -0.0485 -118.8592 -82.3864 -116.4053 12.0431 1.7412 -4.1096 17.2389 16.6034 3.4274 2.0580 7.2956 29.6091 -46.4501 20.2442 -29.4450 -2.7039 0.0000 -5.5924 0.6235 13.2488 -2.7187 33.1476 -0.0000 26.2537 29.2111 -27.9652 -13.2688 -72.3665 -2.2160 33.6838 -2.2422 -0.0000 -30.6477 0.0416 1.8063 -1.3184 32.8623 0.0000 -24.3270 11.2108 14.1930 0.7442 6.0056 0.0000 0.0000 -10.4997 7.5198 -6.7019 5.1424 -0.0000 0.0000 11.6226 -10.6407 -8.1400 3.3156 -0.0000 0.0000 -12.1412 -8.4789 12.6915 12.5465 -0.0000 -0.0000
 5.1392 35.9977 -0.0496 -118.8541 -82.3908 -116.4023 12.0415 1.7273 -4.1092 17.2534 16.6082 3.4159 2.0597 7.2956 29.6141 -46.4661 20.2530 -29.4449 -2.7120 0.0000 -5.6255 0.6128 13.3118 -2.6596 33.1476 -0.0000 26.2537 29.2190 -27.9577 -13.2716 -72.3816 -2.2236 33.6628 -2.2358 -0.0000 -30.6369 0.0391 1.7473 -1.2808 32.8623 0.0000 -24.3270 11.2048 14.1838 0.7476 5.9988 0.0000 -0.0000 -10.4895 7.5342 -6.7210 5.1251 0.0000 0.0000 11.6156 -10.6501 -8.1360 3.3089 0.0000 0.0000 -12.1311 -8.4660 12.6786 12.5541 -0.0000 -0.0000
 5.1428 35.9982 -0.0496 -118.8636 -82.3953 -116.4068 12.0432 1.7200 -4.1143 17.2528 16.6135 3.4091 2.0635 7.3001 29.6109 -46.4916 20.2372 -29.4449 -2.6929 0.0000 -5.6195 0.6090 13.3397 -2.6378 33.1476 -0.0000 26.2537 29.2157 -27.9746 -13.2724 -72.3818 -2.2050 33.6627 -2.2478 -0.0000 -30.6488 0.0396 1.7756 -1.2790 32.8623 0.0000 -24.3270 11.1956 14.1799 0.7430 5.9968 0.0000 -0.0000 -10.4817 7.5340 -6.7104 5.1406 0.0000 -0.0000 11.5989 -10.6543 -8.1410 3.3187 -0.0000 0.0000 -12.1288 -8.4648 12.6875 12.5301 -0.0000 0.0000
